<svg width="927" height="883" xmlns="http://www.w3.org/2000/svg"><g><path d="M-30.328532718122005,-21.98794207535684L-80.73732364922762,252.0085929427296L-16.741549260914326,105.79352899454534Z" fill="#ffffff" stroke="#ffffff"></path><path d="M-30.328532718122005,-21.98794207535684L-16.741549260914326,105.79352899454534L105.65997920930386,55.505782440304756Z" fill="#fdfcfd" stroke="#fdfcfd"></path><path d="M-30.328532718122005,-21.98794207535684L105.65997920930386,55.505782440304756L131.70678002759814,-55.98342290148139Z" fill="#f9f9fc" stroke="#f9f9fc"></path><path d="M-30.328532718122005,-21.98794207535684L131.70678002759814,-55.98342290148139L207.82604956068099,-97.0971598662436Z" fill="#f7f6fa" stroke="#f7f6fa"></path><path d="M131.70678002759814,-55.98342290148139L105.65997920930386,55.505782440304756L173.77136455848813,94.2458843998611Z" fill="#f4f3f9" stroke="#f4f3f9"></path><path d="M131.70678002759814,-55.98342290148139L173.77136455848813,94.2458843998611L207.82604956068099,-97.0971598662436Z" fill="#f0f0f7" stroke="#f0f0f7"></path><path d="M207.82604956068099,-97.0971598662436L173.77136455848813,94.2458843998611L430.0887611322105,26.96595218963921Z" fill="#e3e4f1" stroke="#e3e4f1"></path><path d="M207.82604956068099,-97.0971598662436L430.0887611322105,26.96595218963921L405.3900205716491,-107.69422821700573Z" fill="#d8d8ea" stroke="#d8d8ea"></path><path d="M405.3900205716491,-107.69422821700573L430.0887611322105,26.96595218963921L468.7585673946887,-109.80091514065862Z" fill="#cbcae2" stroke="#cbcae2"></path><path d="M405.3900205716491,-107.69422821700573L468.7585673946887,-109.80091514065862L934.8523167707026,-125.33076572231948Z" fill="#b6abd3" stroke="#b6abd3"></path><path d="M468.7585673946887,-109.80091514065862L430.0887611322105,26.96595218963921L510.75522964820266,48.38748224079609Z" fill="#c6c5e0" stroke="#c6c5e0"></path><path d="M468.7585673946887,-109.80091514065862L510.75522964820266,48.38748224079609L636.9110049493611,-79.22776468098164Z" fill="#bdb9da" stroke="#bdb9da"></path><path d="M468.7585673946887,-109.80091514065862L636.9110049493611,-79.22776468098164L854.5967072434723,-103.85742466896772Z" fill="#b1a1ce" stroke="#b1a1ce"></path><path d="M468.7585673946887,-109.80091514065862L854.5967072434723,-103.85742466896772L934.8523167707026,-125.33076572231948Z" fill="#a78dc4" stroke="#a78dc4"></path><path d="M636.9110049493611,-79.22776468098164L510.75522964820266,48.38748224079609L636.6532084252685,35.35657837986946Z" fill="#b7add4" stroke="#b7add4"></path><path d="M636.9110049493611,-79.22776468098164L636.6532084252685,35.35657837986946L853.2109398208559,27.907996410503983Z" fill="#ab96c8" stroke="#ab96c8"></path><path d="M636.9110049493611,-79.22776468098164L853.2109398208559,27.907996410503983L854.5967072434723,-103.85742466896772Z" fill="#a488c2" stroke="#a488c2"></path><path d="M854.5967072434723,-103.85742466896772L853.2109398208559,27.907996410503983L934.8523167707026,-125.33076572231948Z" fill="#9980b9" stroke="#9980b9"></path><path d="M934.8523167707026,-125.33076572231948L853.2109398208559,27.907996410503983L991.1157730780542,70.04569916054606Z" fill="#9580b5" stroke="#9580b5"></path><path d="M934.8523167707026,-125.33076572231948L991.1157730780542,70.04569916054606L1093.3282738924026,-50.24427252821624Z" fill="#8d80ae" stroke="#8d80ae"></path><path d="M1093.3282738924026,-50.24427252821624L991.1157730780542,70.04569916054606L1086.541262017563,40.404475489631295Z" fill="#8780aa" stroke="#8780aa"></path><path d="M1093.3282738924026,-50.24427252821624L1086.541262017563,40.404475489631295L1156.8909109197557,831.8564860057086Z" fill="#7574a5" stroke="#7574a5"></path><path d="M-16.741549260914326,105.79352899454534L-80.73732364922762,252.0085929427296L48.34773821756244,182.06083478406072Z" fill="#fffeff" stroke="#fffeff"></path><path d="M-16.741549260914326,105.79352899454534L48.34773821756244,182.06083478406072L105.65997920930386,55.505782440304756Z" fill="#fbfafc" stroke="#fbfafc"></path><path d="M105.65997920930386,55.505782440304756L48.34773821756244,182.06083478406072L173.77136455848813,94.2458843998611Z" fill="#f7f6fa" stroke="#f7f6fa"></path><path d="M173.77136455848813,94.2458843998611L48.34773821756244,182.06083478406072L270.5182993132621,263.6134095210582Z" fill="#f1f1f7" stroke="#f1f1f7"></path><path d="M173.77136455848813,94.2458843998611L270.5182993132621,263.6134095210582L384.90935160778463,218.4003490023315Z" fill="#e2e3f0" stroke="#e2e3f0"></path><path d="M173.77136455848813,94.2458843998611L384.90935160778463,218.4003490023315L430.0887611322105,26.96595218963921Z" fill="#dbdbec" stroke="#dbdbec"></path><path d="M430.0887611322105,26.96595218963921L384.90935160778463,218.4003490023315L525.2942593116313,193.30782040022314Z" fill="#cac8e1" stroke="#cac8e1"></path><path d="M430.0887611322105,26.96595218963921L525.2942593116313,193.30782040022314L510.75522964820266,48.38748224079609Z" fill="#c4c2df" stroke="#c4c2df"></path><path d="M510.75522964820266,48.38748224079609L525.2942593116313,193.30782040022314L636.6532084252685,35.35657837986946Z" fill="#bbb5d8" stroke="#bbb5d8"></path><path d="M636.6532084252685,35.35657837986946L525.2942593116313,193.30782040022314L672.364861657843,172.13180361315608Z" fill="#b5aad2" stroke="#b5aad2"></path><path d="M636.6532084252685,35.35657837986946L672.364861657843,172.13180361315608L853.2109398208559,27.907996410503983Z" fill="#aa93c7" stroke="#aa93c7"></path><path d="M853.2109398208559,27.907996410503983L672.364861657843,172.13180361315608L869.8045500554144,171.88936142250896Z" fill="#a285c0" stroke="#a285c0"></path><path d="M853.2109398208559,27.907996410503983L869.8045500554144,171.88936142250896L991.1157730780542,70.04569916054606Z" fill="#9780b7" stroke="#9780b7"></path><path d="M991.1157730780542,70.04569916054606L869.8045500554144,171.88936142250896L936.4623634703457,178.24664334766567Z" fill="#9480b5" stroke="#9480b5"></path><path d="M991.1157730780542,70.04569916054606L936.4623634703457,178.24664334766567L1072.3951806966215,275.5795420333743Z" fill="#8d80af" stroke="#8d80af"></path><path d="M991.1157730780542,70.04569916054606L1072.3951806966215,275.5795420333743L1086.541262017563,40.404475489631295Z" fill="#8880ab" stroke="#8880ab"></path><path d="M1086.541262017563,40.404475489631295L1072.3951806966215,275.5795420333743L1083.948308257386,355.5859940405935Z" fill="#817ca8" stroke="#817ca8"></path><path d="M1086.541262017563,40.404475489631295L1083.948308257386,355.5859940405935L1156.8909109197557,831.8564860057086Z" fill="#5e599c" stroke="#5e599c"></path><path d="M-80.73732364922762,252.0085929427296L-114.03309532441199,540.2905877586454L-78.78491073846817,332.9043762758374Z" fill="#e1dff9" stroke="#e1dff9"></path><path d="M-80.73732364922762,252.0085929427296L-78.78491073846817,332.9043762758374L48.34773821756244,182.06083478406072Z" fill="#f6f6ff" stroke="#f6f6ff"></path><path d="M48.34773821756244,182.06083478406072L-78.78491073846817,332.9043762758374L71.43096327781677,415.21043311804533Z" fill="#eaeafc" stroke="#eaeafc"></path><path d="M48.34773821756244,182.06083478406072L71.43096327781677,415.21043311804533L237.35008844174445,329.5080039650202Z" fill="#e4e3f8" stroke="#e4e3f8"></path><path d="M48.34773821756244,182.06083478406072L237.35008844174445,329.5080039650202L270.5182993132621,263.6134095210582Z" fill="#e5e5f6" stroke="#e5e5f6"></path><path d="M270.5182993132621,263.6134095210582L237.35008844174445,329.5080039650202L349.7404684033245,420.581184849143Z" fill="#cacaec" stroke="#cacaec"></path><path d="M270.5182993132621,263.6134095210582L349.7404684033245,420.581184849143L384.90935160778463,218.4003490023315Z" fill="#c9c9eb" stroke="#c9c9eb"></path><path d="M384.90935160778463,218.4003490023315L349.7404684033245,420.581184849143L506.144691221416,365.0750455353409Z" fill="#b8b5e0" stroke="#b8b5e0"></path><path d="M384.90935160778463,218.4003490023315L506.144691221416,365.0750455353409L525.2942593116313,193.30782040022314Z" fill="#bcbbe0" stroke="#bcbbe0"></path><path d="M525.2942593116313,193.30782040022314L506.144691221416,365.0750455353409L672.364861657843,172.13180361315608Z" fill="#b3acd7" stroke="#b3acd7"></path><path d="M672.364861657843,172.13180361315608L506.144691221416,365.0750455353409L625.9806035086513,428.3008028380573Z" fill="#a297d1" stroke="#a297d1"></path><path d="M672.364861657843,172.13180361315608L625.9806035086513,428.3008028380573L862.0831709168851,375.46998183242977Z" fill="#957ec5" stroke="#957ec5"></path><path d="M672.364861657843,172.13180361315608L862.0831709168851,375.46998183242977L869.8045500554144,171.88936142250896Z" fill="#9b7ec0" stroke="#9b7ec0"></path><path d="M869.8045500554144,171.88936142250896L862.0831709168851,375.46998183242977L927.5388818979263,344.69059394672513Z" fill="#8970b9" stroke="#8970b9"></path><path d="M869.8045500554144,171.88936142250896L927.5388818979263,344.69059394672513L936.4623634703457,178.24664334766567Z" fill="#917ab7" stroke="#917ab7"></path><path d="M936.4623634703457,178.24664334766567L927.5388818979263,344.69059394672513L1072.3951806966215,275.5795420333743Z" fill="#8475b1" stroke="#8475b1"></path><path d="M1072.3951806966215,275.5795420333743L927.5388818979263,344.69059394672513L1083.948308257386,355.5859940405935Z" fill="#756aaa" stroke="#756aaa"></path><path d="M-78.78491073846817,332.9043762758374L-114.03309532441199,540.2905877586454L71.43096327781677,415.21043311804533Z" fill="#d7d5f4" stroke="#d7d5f4"></path><path d="M71.43096327781677,415.21043311804533L-114.03309532441199,540.2905877586454L102.34531165100634,540.6411135848612Z" fill="#c8c5ec" stroke="#c8c5ec"></path><path d="M71.43096327781677,415.21043311804533L102.34531165100634,540.6411135848612L214.95563040487468,470.7729633897543Z" fill="#c4c1ea" stroke="#c4c1ea"></path><path d="M71.43096327781677,415.21043311804533L214.95563040487468,470.7729633897543L237.35008844174445,329.5080039650202Z" fill="#cccaee" stroke="#cccaee"></path><path d="M237.35008844174445,329.5080039650202L214.95563040487468,470.7729633897543L349.7404684033245,420.581184849143Z" fill="#c0bee7" stroke="#c0bee7"></path><path d="M349.7404684033245,420.581184849143L214.95563040487468,470.7729633897543L431.2638390529901,577.0714962109923Z" fill="#a7a5db" stroke="#a7a5db"></path><path d="M349.7404684033245,420.581184849143L431.2638390529901,577.0714962109923L547.0833315420896,510.126441931352Z" fill="#9590d0" stroke="#9590d0"></path><path d="M349.7404684033245,420.581184849143L547.0833315420896,510.126441931352L506.144691221416,365.0750455353409Z" fill="#9e9ad4" stroke="#9e9ad4"></path><path d="M506.144691221416,365.0750455353409L547.0833315420896,510.126441931352L625.9806035086513,428.3008028380573Z" fill="#928acc" stroke="#928acc"></path><path d="M625.9806035086513,428.3008028380573L547.0833315420896,510.126441931352L711.5483070909977,576.4730573259294Z" fill="#7e6dbe" stroke="#7e6dbe"></path><path d="M625.9806035086513,428.3008028380573L711.5483070909977,576.4730573259294L853.9970665890723,490.62434680759907Z" fill="#745ab5" stroke="#745ab5"></path><path d="M625.9806035086513,428.3008028380573L853.9970665890723,490.62434680759907L862.0831709168851,375.46998183242977Z" fill="#7b5db7" stroke="#7b5db7"></path><path d="M862.0831709168851,375.46998183242977L853.9970665890723,490.62434680759907L927.5388818979263,344.69059394672513Z" fill="#765ab0" stroke="#765ab0"></path><path d="M927.5388818979263,344.69059394672513L853.9970665890723,490.62434680759907L923.1338976044208,536.4126646053046Z" fill="#6a51aa" stroke="#6a51aa"></path><path d="M927.5388818979263,344.69059394672513L923.1338976044208,536.4126646053046L1082.8967473190278,511.83126099407673Z" fill="#614fa3" stroke="#614fa3"></path><path d="M927.5388818979263,344.69059394672513L1082.8967473190278,511.83126099407673L1083.948308257386,355.5859940405935Z" fill="#675aa3" stroke="#675aa3"></path><path d="M1083.948308257386,355.5859940405935L1082.8967473190278,511.83126099407673L1107.4711277335882,631.6093220002949Z" fill="#4f4895" stroke="#4f4895"></path><path d="M1083.948308257386,355.5859940405935L1107.4711277335882,631.6093220002949L1156.8909109197557,831.8564860057086Z" fill="#3e2c84" stroke="#3e2c84"></path><path d="M-114.03309532441199,540.2905877586454L-131.27592287957668,871.4986973069608L-106.14745561033487,679.3517194222659Z" fill="#b094d4" stroke="#b094d4"></path><path d="M-114.03309532441199,540.2905877586454L-106.14745561033487,679.3517194222659L21.301118256524205,684.8879003897309Z" fill="#b9a4db" stroke="#b9a4db"></path><path d="M-114.03309532441199,540.2905877586454L21.301118256524205,684.8879003897309L102.34531165100634,540.6411135848612Z" fill="#bdaee0" stroke="#bdaee0"></path><path d="M102.34531165100634,540.6411135848612L21.301118256524205,684.8879003897309L184.61361947469413,692.3602676298469Z" fill="#b09ad6" stroke="#b09ad6"></path><path d="M102.34531165100634,540.6411135848612L184.61361947469413,692.3602676298469L214.95563040487468,470.7729633897543Z" fill="#b3a6dc" stroke="#b3a6dc"></path><path d="M214.95563040487468,470.7729633897543L184.61361947469413,692.3602676298469L323.9417118765414,696.195213496685Z" fill="#a390d0" stroke="#a390d0"></path><path d="M214.95563040487468,470.7729633897543L323.9417118765414,696.195213496685L431.2638390529901,577.0714962109923Z" fill="#9c8ecf" stroke="#9c8ecf"></path><path d="M431.2638390529901,577.0714962109923L323.9417118765414,696.195213496685L413.04990702308714,823.2324183639139Z" fill="#8365ba" stroke="#8365ba"></path><path d="M431.2638390529901,577.0714962109923L413.04990702308714,823.2324183639139L511.0771968495101,820.0473882257938Z" fill="#7452b1" stroke="#7452b1"></path><path d="M431.2638390529901,577.0714962109923L511.0771968495101,820.0473882257938L573.824212141335,644.7429268341511Z" fill="#7559b4" stroke="#7559b4"></path><path d="M431.2638390529901,577.0714962109923L573.824212141335,644.7429268341511L547.0833315420896,510.126441931352Z" fill="#8071bf" stroke="#8071bf"></path><path d="M547.0833315420896,510.126441931352L573.824212141335,644.7429268341511L637.6432941108942,615.5857508908957Z" fill="#785fb6" stroke="#785fb6"></path><path d="M547.0833315420896,510.126441931352L637.6432941108942,615.5857508908957L711.5483070909977,576.4730573259294Z" fill="#765bb4" stroke="#765bb4"></path><path d="M711.5483070909977,576.4730573259294L637.6432941108942,615.5857508908957L847.7066359575838,782.3165900632739Z" fill="#5f309f" stroke="#5f309f"></path><path d="M711.5483070909977,576.4730573259294L847.7066359575838,782.3165900632739L884.6914799977094,720.6146357953548Z" fill="#521894" stroke="#521894"></path><path d="M711.5483070909977,576.4730573259294L884.6914799977094,720.6146357953548L923.1338976044208,536.4126646053046Z" fill="#5a2b9b" stroke="#5a2b9b"></path><path d="M711.5483070909977,576.4730573259294L923.1338976044208,536.4126646053046L853.9970665890723,490.62434680759907Z" fill="#653fa7" stroke="#653fa7"></path><path d="M923.1338976044208,536.4126646053046L884.6914799977094,720.6146357953548L982.0916034188122,657.1620458364487Z" fill="#4d2490" stroke="#4d2490"></path><path d="M923.1338976044208,536.4126646053046L982.0916034188122,657.1620458364487L1082.8967473190278,511.83126099407673Z" fill="#503694" stroke="#503694"></path><path d="M1082.8967473190278,511.83126099407673L982.0916034188122,657.1620458364487L1107.4711277335882,631.6093220002949Z" fill="#452d8a" stroke="#452d8a"></path><path d="M-106.14745561033487,679.3517194222659L-131.27592287957668,871.4986973069608L21.301118256524205,684.8879003897309Z" fill="#aa89ce" stroke="#aa89ce"></path><path d="M21.301118256524205,684.8879003897309L-131.27592287957668,871.4986973069608L-59.3979767896235,943.1485425308347Z" fill="#9f80c5" stroke="#9f80c5"></path><path d="M21.301118256524205,684.8879003897309L-59.3979767896235,943.1485425308347L130.38738777861,838.3607764262706Z" fill="#9d7cc4" stroke="#9d7cc4"></path><path d="M21.301118256524205,684.8879003897309L130.38738777861,838.3607764262706L173.0315695423633,776.0251338221133Z" fill="#9f7bc7" stroke="#9f7bc7"></path><path d="M21.301118256524205,684.8879003897309L173.0315695423633,776.0251338221133L184.61361947469413,692.3602676298469Z" fill="#a384cb" stroke="#a384cb"></path><path d="M184.61361947469413,692.3602676298469L173.0315695423633,776.0251338221133L323.9417118765414,696.195213496685Z" fill="#9879c6" stroke="#9879c6"></path><path d="M323.9417118765414,696.195213496685L173.0315695423633,776.0251338221133L413.04990702308714,823.2324183639139Z" fill="#8764bb" stroke="#8764bb"></path><path d="M573.824212141335,644.7429268341511L511.0771968495101,820.0473882257938L661.6252363845706,863.3604597207159Z" fill="#6032a1" stroke="#6032a1"></path><path d="M573.824212141335,644.7429268341511L661.6252363845706,863.3604597207159L637.6432941108942,615.5857508908957Z" fill="#6439a4" stroke="#6439a4"></path><path d="M637.6432941108942,615.5857508908957L661.6252363845706,863.3604597207159L847.7066359575838,782.3165900632739Z" fill="#541c96" stroke="#541c96"></path><path d="M884.6914799977094,720.6146357953548L847.7066359575838,782.3165900632739L918.5216135066003,791.2208160292357Z" fill="#420586" stroke="#420586"></path><path d="M884.6914799977094,720.6146357953548L918.5216135066003,791.2208160292357L982.0916034188122,657.1620458364487Z" fill="#430f87" stroke="#430f87"></path><path d="M982.0916034188122,657.1620458364487L918.5216135066003,791.2208160292357L1156.8909109197557,831.8564860057086Z" fill="#34067b" stroke="#34067b"></path><path d="M982.0916034188122,657.1620458364487L1156.8909109197557,831.8564860057086L1107.4711277335882,631.6093220002949Z" fill="#35137b" stroke="#35137b"></path><path d="M130.38738777861,838.3607764262706L-59.3979767896235,943.1485425308347L45.71084411814809,974.8873970098794Z" fill="#907bb9" stroke="#907bb9"></path><path d="M130.38738777861,838.3607764262706L45.71084411814809,974.8873970098794L199.11326439119875,990.3030485473573Z" fill="#8875b4" stroke="#8875b4"></path><path d="M130.38738777861,838.3607764262706L199.11326439119875,990.3030485473573L173.0315695423633,776.0251338221133Z" fill="#8c71b9" stroke="#8c71b9"></path><path d="M173.0315695423633,776.0251338221133L199.11326439119875,990.3030485473573L413.04990702308714,823.2324183639139Z" fill="#8165b4" stroke="#8165b4"></path><path d="M413.04990702308714,823.2324183639139L199.11326439119875,990.3030485473573L400.2234399598092,971.8245636764914Z" fill="#6d5aa6" stroke="#6d5aa6"></path><path d="M413.04990702308714,823.2324183639139L400.2234399598092,971.8245636764914L511.0771968495101,820.0473882257938Z" fill="#6549a3" stroke="#6549a3"></path><path d="M511.0771968495101,820.0473882257938L400.2234399598092,971.8245636764914L577.6367263030261,999.2998175136745Z" fill="#56419a" stroke="#56419a"></path><path d="M511.0771968495101,820.0473882257938L577.6367263030261,999.2998175136745L661.6252363845706,863.3604597207159Z" fill="#503095" stroke="#503095"></path><path d="M661.6252363845706,863.3604597207159L577.6367263030261,999.2998175136745L705.5085550993681,936.6094007436186Z" fill="#452389" stroke="#452389"></path><path d="M661.6252363845706,863.3604597207159L705.5085550993681,936.6094007436186L847.7066359575838,782.3165900632739Z" fill="#441089" stroke="#441089"></path><path d="M847.7066359575838,782.3165900632739L705.5085550993681,936.6094007436186L838.2707163412124,937.4006501957774Z" fill="#3b0581" stroke="#3b0581"></path><path d="M847.7066359575838,782.3165900632739L838.2707163412124,937.4006501957774L918.5216135066003,791.2208160292357Z" fill="#3a0080" stroke="#3a0080"></path><path d="M918.5216135066003,791.2208160292357L838.2707163412124,937.4006501957774L1066.5422919485718,918.2495866622776Z" fill="#2d0075" stroke="#2d0075"></path><path d="M918.5216135066003,791.2208160292357L1066.5422919485718,918.2495866622776L1156.8909109197557,831.8564860057086Z" fill="#26006f" stroke="#26006f"></path><path d="M199.11326439119875,990.3030485473573L917.692496906966,1025.7743885368109L577.6367263030261,999.2998175136745Z" fill="#44348b" stroke="#44348b"></path><path d="M199.11326439119875,990.3030485473573L577.6367263030261,999.2998175136745L400.2234399598092,971.8245636764914Z" fill="#5e519b" stroke="#5e519b"></path><path d="M577.6367263030261,999.2998175136745L917.692496906966,1025.7743885368109L705.5085550993681,936.6094007436186Z" fill="#34117c" stroke="#34117c"></path><path d="M705.5085550993681,936.6094007436186L917.692496906966,1025.7743885368109L838.2707163412124,937.4006501957774Z" fill="#2f0176" stroke="#2f0176"></path><path d="M838.2707163412124,937.4006501957774L917.692496906966,1025.7743885368109L1066.5422919485718,918.2495866622776Z" fill="#23006c" stroke="#23006c"></path></g></svg>